# xmcd
#
# Track frame offsets:
#	182
#	16922
#	33065
#	50345
#	62345
#	88245
#	116502
#	133110
#	149877
#	162020
#
# Disc length: 2339 seconds
#
# Revision: 1
# Processed by: cddbd v1.5.2PL0 Copyright (c) Steve Scherf et al.
# Submitted via: EasyCDDAExtractor 16.0.6.1
#
DISCID=8109210a
DTITLE=The Wood Brothers - Hooked On Country
DYEAR=1991
DGENRE=Country
TTITLE0=Hooked On Country Love
TTITLE1=Hooked On Randy Travis
TTITLE2=Hooked On Willie Nelson
TTITLE3=Hooked On Trains
TTITLE4=Hooked On Merle Haggard
TTITLE5=Hooked On George Strait
TTITLE6=Hooked On Marty Robbins
TTITLE7=Hooked On a Waltz
TTITLE8=Hooked On Johnny Cash
TTITLE9=Hooked On A Country Party
EXTD=
EXTT0=
EXTT1=
EXTT2=
EXTT3=
EXTT4=
EXTT5=
EXTT6=
EXTT7=
EXTT8=
EXTT9=
PLAYORDER=
